<?xml version="1.0" encoding="UTF-8" ?>
<!DOCTYPE svg PUBLIC "-//W3C//DTD SVG 1.1//EN" "http://www.w3.org/Graphics/SVG/1.1/DTD/svg11.dtd">
<svg width="1000pt" height="1000pt" viewBox="0 0 1000 1000" version="1.1" xmlns="http://www.w3.org/2000/svg">
<path fill="#0178ff" d=" M 0.00 0.00 L 1000.00 0.00 L 1000.00 1000.00 L 0.00 1000.00 L 0.00 0.00 Z" />
<path fill="#f4f9ff" d=" M 286.00 350.88 C 297.25 350.93 308.51 350.73 319.76 350.98 C 319.75 383.74 319.59 416.51 319.84 449.27 C 324.61 441.69 330.98 434.84 339.21 430.98 C 348.63 426.64 359.41 426.30 369.54 427.66 C 383.05 429.49 395.61 437.91 401.96 450.05 C 407.31 460.10 408.66 471.74 408.78 482.97 C 408.81 511.65 408.77 540.34 408.79 569.02 C 397.53 569.12 386.26 569.04 375.00 569.06 C 374.96 544.37 375.09 519.67 374.93 494.98 C 374.56 484.25 373.87 472.14 365.98 463.96 C 360.68 458.17 352.16 457.34 344.82 458.43 C 336.54 459.40 328.94 464.53 324.82 471.76 C 320.72 478.74 319.64 487.03 319.72 495.01 C 319.75 519.66 319.66 544.31 319.76 568.96 C 308.51 569.19 297.25 569.00 286.00 569.06 C 286.00 496.33 286.00 423.60 286.00 350.88 Z" />
<path fill="#f4f9ff" d=" M 742.06 351.30 C 753.27 351.40 764.49 351.31 775.70 351.35 C 775.75 396.87 775.70 442.38 775.73 487.90 C 793.02 469.04 810.13 450.01 827.27 431.02 C 841.71 430.98 856.15 431.00 870.60 431.01 C 851.41 451.86 832.32 472.80 812.99 493.51 C 833.22 518.82 853.88 543.80 874.27 569.00 C 859.47 568.96 844.67 569.08 829.89 568.94 C 828.51 568.04 827.76 566.48 826.75 565.25 C 814.25 548.77 801.74 532.31 789.24 515.84 C 784.70 510.14 780.67 504.00 775.80 498.58 C 775.63 522.04 775.74 545.51 775.74 568.97 C 764.49 569.10 753.25 569.06 742.00 569.06 C 742.04 496.47 741.92 423.89 742.06 351.30 Z" />
<path fill="#f4f9ff" d=" M 162.92 365.07 C 183.31 358.16 206.06 358.19 226.33 365.49 C 235.59 368.82 243.97 374.32 251.10 381.07 C 242.56 390.49 233.96 399.87 225.27 409.16 C 221.12 403.01 214.92 398.37 207.90 396.03 C 197.06 392.21 184.78 391.86 174.01 396.06 C 166.72 398.90 160.54 405.08 158.85 412.86 C 157.17 420.31 158.33 429.25 164.54 434.36 C 175.06 442.85 188.36 446.56 200.95 450.81 C 216.75 455.34 232.79 462.72 242.70 476.40 C 251.92 488.08 253.09 503.86 251.72 518.15 C 250.15 534.38 241.62 549.87 228.45 559.53 C 216.27 568.64 201.07 572.83 186.07 573.86 C 169.40 574.80 152.33 572.03 137.25 564.71 C 128.44 560.29 120.75 553.82 114.56 546.18 C 123.42 537.37 132.30 528.57 141.08 519.68 C 146.22 526.95 152.94 533.23 161.19 536.79 C 174.08 542.69 189.88 542.41 202.18 535.16 C 208.71 531.36 213.81 524.73 214.83 517.14 C 215.64 510.69 214.72 503.60 210.51 498.42 C 207.74 495.12 204.09 492.72 200.46 490.49 C 183.56 480.60 163.24 478.75 146.59 468.35 C 134.68 461.15 124.76 449.45 122.31 435.46 C 119.65 420.56 120.79 404.17 129.13 391.15 C 136.73 378.68 149.22 369.74 162.92 365.07 Z" />
<path fill="#f4f9ff" d=" M 629.36 440.35 C 642.84 430.84 659.59 426.41 676.01 427.01 C 693.29 427.75 710.69 434.75 722.20 447.95 C 714.43 455.94 706.68 463.94 698.86 471.89 C 693.10 465.92 686.29 460.23 677.96 458.50 C 666.45 456.62 654.30 460.86 646.08 469.05 C 629.27 485.57 630.01 516.50 648.10 531.81 C 659.93 542.17 679.00 544.41 692.10 535.13 C 694.92 533.19 697.28 530.66 699.39 527.97 C 706.86 536.23 714.60 544.35 721.74 552.84 C 712.64 562.21 700.07 567.46 687.53 570.38 C 669.06 574.43 649.11 570.81 632.97 561.04 C 618.34 552.18 607.72 537.40 603.07 521.02 C 599.68 508.68 599.40 495.54 601.85 483.00 C 605.34 466.06 615.14 450.31 629.36 440.35 Z" />
<path fill="#f4f9ff" d=" M 446.00 431.00 C 457.25 431.02 468.49 430.96 479.74 431.02 C 479.75 455.36 479.63 479.71 479.80 504.05 C 480.06 514.83 480.84 527.00 488.77 535.21 C 493.86 540.81 502.09 541.52 509.18 540.66 C 517.30 539.92 524.90 535.24 529.27 528.37 C 533.54 521.78 534.92 513.76 535.01 506.04 C 535.02 481.03 535.01 456.01 535.01 431.00 C 546.28 431.01 557.54 430.98 568.80 431.02 C 568.77 477.02 568.79 523.03 568.79 569.03 C 558.11 569.10 547.42 569.05 536.74 569.05 C 536.70 561.59 536.81 554.12 536.69 546.65 C 534.95 548.37 534.14 550.75 532.74 552.71 C 526.91 561.24 518.43 568.52 508.09 570.65 C 497.56 572.87 486.33 572.57 476.07 569.19 C 466.39 565.83 458.01 558.86 453.12 549.85 C 447.29 539.27 445.82 526.88 446.00 514.97 C 446.00 486.98 446.00 458.99 446.00 431.00 Z" />
<path fill="#f4f9ff" d=" M 431.71 593.57 C 433.76 593.29 435.83 593.26 437.90 593.27 C 438.27 619.86 437.96 646.46 438.06 673.06 C 435.97 673.05 433.89 673.05 431.81 673.06 C 431.78 670.15 431.79 667.24 431.89 664.34 C 423.91 676.43 404.76 677.09 394.82 667.15 C 384.84 657.21 385.04 638.97 395.36 629.34 C 405.43 619.93 423.87 620.83 431.87 632.52 C 431.67 619.53 431.97 606.55 431.71 593.57 Z" />
<path fill="#f4f9ff" d=" M 595.27 601.38 C 598.37 599.74 602.71 602.50 602.01 606.10 C 601.77 609.45 597.37 611.18 594.73 609.31 C 591.72 607.65 592.08 602.63 595.27 601.38 Z" />
<path fill="#f4f9ff" d=" M 562.68 610.00 C 564.77 609.99 566.88 609.99 568.98 610.00 C 568.98 614.66 568.97 619.33 568.99 623.99 C 573.53 624.02 578.08 623.93 582.62 624.06 C 582.60 626.02 582.59 628.00 582.61 629.98 C 578.07 630.15 573.53 630.02 568.99 630.07 C 568.99 640.39 568.96 650.72 568.99 661.04 C 568.88 663.40 569.81 666.03 572.05 667.15 C 575.34 668.81 579.13 667.57 582.45 666.59 C 582.82 668.56 583.01 670.56 582.91 672.57 C 578.22 673.85 572.95 675.03 568.41 672.64 C 564.42 670.76 562.66 666.15 562.72 661.97 C 562.62 651.35 562.67 640.73 562.70 630.11 C 559.25 630.02 555.80 630.15 552.35 629.93 C 552.39 627.96 552.40 626.00 552.39 624.04 C 555.82 623.98 559.26 624.00 562.70 623.96 C 562.66 619.30 562.67 614.65 562.68 610.00 Z" />
<path fill="#f4f9ff" d=" M 239.08 632.40 C 247.06 621.09 264.83 619.95 274.99 628.89 C 286.20 638.59 286.25 658.22 275.12 668.00 C 265.02 677.01 247.12 676.01 239.08 664.72 C 239.19 675.48 239.10 686.24 239.12 697.00 C 237.04 696.99 234.96 696.99 232.88 697.00 C 232.87 672.67 232.87 648.33 232.88 624.00 C 234.96 623.99 237.04 623.99 239.13 624.00 C 239.14 626.80 239.12 629.60 239.08 632.40 Z" />
<path fill="#f4f9ff" d=" M 302.17 632.24 C 306.21 626.20 313.61 620.63 321.14 623.90 C 320.89 625.69 320.64 627.50 320.40 629.32 C 315.28 628.44 309.49 629.91 306.17 634.12 C 303.00 637.98 302.35 643.18 302.45 648.02 C 302.46 656.37 302.46 664.72 302.45 673.07 C 300.34 673.06 298.24 673.05 296.14 673.03 C 296.03 656.68 296.49 640.33 295.67 624.00 C 297.77 623.99 299.87 623.99 301.98 624.00 C 302.02 626.75 302.06 629.49 302.17 632.24 Z" />
<path fill="#f4f9ff" d=" M 345.49 623.60 C 353.29 621.89 362.00 623.49 368.13 628.79 C 379.15 638.19 379.54 657.13 369.24 667.20 C 360.04 676.21 343.76 676.36 334.32 667.64 C 324.21 658.16 323.86 640.44 333.31 630.37 C 336.54 626.92 340.89 624.62 345.49 623.60 Z" />
<path fill="#f4f9ff" d=" M 517.13 627.15 C 527.04 620.29 542.02 621.92 549.33 631.83 C 547.67 633.10 545.98 634.34 544.25 635.51 C 541.72 632.74 538.63 630.31 534.92 629.44 C 527.16 627.72 518.44 631.72 514.96 638.93 C 511.59 645.90 512.08 654.90 516.89 661.11 C 521.90 667.50 531.77 670.10 538.96 665.95 C 541.07 664.75 542.74 662.96 544.41 661.24 C 545.99 662.57 547.56 663.90 549.15 665.22 C 541.33 676.35 523.91 676.66 514.36 667.67 C 502.94 657.10 504.00 635.89 517.13 627.15 Z" />
<path fill="#f4f9ff" d=" M 634.49 623.60 C 642.31 621.89 651.03 623.50 657.16 628.81 C 668.35 638.38 668.54 657.84 657.68 667.73 C 648.39 676.21 632.62 676.18 623.36 667.68 C 613.21 658.20 612.85 640.43 622.32 630.36 C 625.55 626.92 629.90 624.62 634.49 623.60 Z" />
<path fill="#f4f9ff" d=" M 685.20 632.90 C 688.04 628.28 692.41 624.31 697.90 623.33 C 703.67 622.37 710.30 623.08 714.69 627.35 C 718.91 631.33 719.93 637.47 720.05 643.02 C 720.08 653.03 720.05 663.04 720.06 673.06 C 717.97 673.05 715.89 673.05 713.81 673.06 C 713.77 663.38 713.86 653.70 713.77 644.03 C 713.60 639.41 712.92 634.08 708.98 631.09 C 704.60 628.02 698.54 628.67 693.97 630.98 C 688.26 634.08 685.73 640.84 685.53 647.05 C 685.35 655.72 685.51 664.39 685.45 673.06 C 683.34 673.05 681.24 673.05 679.14 673.03 C 679.03 656.68 679.49 640.33 678.67 624.00 C 680.77 623.99 682.87 623.99 684.98 624.00 C 685.03 626.96 685.09 629.93 685.20 632.90 Z" />
<path fill="#f4f9ff" d=" M 738.84 625.77 C 747.57 620.41 761.58 622.52 765.98 632.54 C 764.11 633.69 762.20 634.77 760.28 635.82 C 757.18 628.54 746.82 626.86 741.17 632.09 C 738.38 634.46 738.28 639.49 741.41 641.61 C 747.65 645.85 756.03 644.40 762.24 648.75 C 769.85 653.74 768.58 666.59 761.01 671.05 C 751.26 676.93 736.48 674.11 730.74 663.88 C 732.54 662.48 734.41 661.17 736.40 660.03 C 740.16 667.62 751.40 670.60 758.07 665.09 C 761.38 662.61 762.24 656.95 758.86 654.20 C 751.43 648.70 739.57 651.44 734.12 642.84 C 731.18 637.02 733.13 629.14 738.84 625.77 Z" />
<path fill="#f4f9ff" d=" M 451.68 624.00 C 453.78 623.99 455.88 623.99 457.99 624.00 C 458.01 634.00 457.92 644.00 458.02 653.99 C 458.19 658.58 459.32 663.97 463.61 666.48 C 468.03 668.87 473.64 668.20 477.97 665.90 C 483.55 662.74 486.03 656.07 486.20 649.93 C 486.36 641.31 486.28 632.68 486.23 624.06 C 488.37 623.97 490.51 623.97 492.65 624.09 C 492.59 640.41 492.34 656.74 493.04 673.06 C 490.95 673.05 488.87 673.05 486.80 673.06 C 486.72 670.07 486.61 667.08 486.50 664.10 C 483.77 668.69 479.44 672.57 474.08 673.63 C 468.07 674.68 461.12 673.90 456.65 669.36 C 452.60 665.35 451.82 659.35 451.71 653.93 C 451.62 643.95 451.70 633.97 451.68 624.00 Z" />
<path fill="#f4f9ff" d=" M 594.20 624.02 C 596.34 623.95 598.48 623.96 600.63 624.16 C 600.42 640.42 600.52 656.69 600.57 672.95 C 598.45 673.05 596.33 673.09 594.21 673.05 C 594.20 656.70 594.23 640.36 594.20 624.02 Z" />
<path fill="#0178ff" d=" M 253.46 629.64 C 259.08 628.24 265.37 629.30 269.98 632.88 C 279.72 640.35 279.53 657.37 269.48 664.50 C 262.86 669.26 253.27 669.01 246.71 664.25 C 240.66 660.07 237.40 652.24 238.84 645.00 C 240.12 637.58 246.18 631.39 253.46 629.64 Z" />
<path fill="#0178ff" d=" M 346.51 629.68 C 352.15 628.23 358.51 629.23 363.15 632.84 C 373.00 640.28 372.80 657.47 362.63 664.55 C 356.00 669.26 346.30 669.08 339.88 664.08 C 330.38 656.72 330.40 640.24 339.91 632.90 C 341.86 631.39 344.12 630.31 346.51 629.68 Z" />
<path fill="#0178ff" d=" M 407.52 629.68 C 413.88 628.00 420.99 629.69 425.89 634.09 C 430.33 637.99 432.82 644.00 432.33 649.90 C 431.96 655.83 428.59 661.44 423.60 664.66 C 417.07 669.04 407.82 669.11 401.40 664.46 C 391.39 657.32 391.22 640.34 400.93 632.88 C 402.88 631.38 405.13 630.29 407.52 629.68 Z" />
<path fill="#0178ff" d=" M 635.47 629.69 C 641.12 628.23 647.51 629.22 652.16 632.85 C 662.04 640.32 661.79 657.61 651.52 664.64 C 644.13 669.82 632.98 668.89 626.82 662.19 C 621.17 656.07 620.40 646.40 623.91 639.03 C 626.13 634.40 630.52 630.96 635.47 629.69 Z" />
</svg>
