<?xml version="1.0" standalone="no"?>
<!DOCTYPE svg PUBLIC "-//W3C//DTD SVG 20010904//EN"
 "http://www.w3.org/TR/2001/REC-SVG-20010904/DTD/svg10.dtd">
<svg version="1.0" xmlns="http://www.w3.org/2000/svg"
 width="700.000000pt" height="700.000000pt" viewBox="0 0 700.000000 700.000000"
 preserveAspectRatio="xMidYMid meet">
<metadata>
Created by potrace 1.11, written by Peter Selinger 2001-2013
</metadata>
<g transform="translate(0.000000,700.000000) scale(0.100000,-0.100000)"
fill="#000000" stroke="none">
<path d="M0 3500 l0 -3500 3500 0 3500 0 0 3500 0 3500 -3500 0 -3500 0 0
-3500z m2240 698 l0 -341 27 34 c67 87 157 125 277 117 97 -7 165 -38 224
-103 84 -91 86 -104 90 -522 l3 -363 -115 0 c-64 0 -117 1 -117 3 -1 1 -5 144
-8 317 -6 306 -7 316 -30 363 -31 63 -69 87 -142 87 -77 0 -135 -32 -174 -95
l-30 -48 -3 -314 -3 -313 -120 0 -119 0 0 760 0 760 120 0 120 0 0 -342z
m3192 -133 l3 -475 175 194 175 195 154 0 153 1 -100 -107 c-54 -60 -145 -157
-200 -218 l-100 -110 32 -40 c18 -22 112 -138 209 -258 97 -119 177 -219 177
-222 0 -3 -69 -5 -153 -5 l-152 0 -178 235 c-98 129 -183 237 -188 240 -5 4
-9 -88 -9 -234 l0 -241 -120 0 -120 0 0 760 0 760 120 0 120 0 2 -475z m-3894
389 c70 -20 163 -68 193 -100 l22 -23 -33 -38 c-18 -21 -57 -64 -87 -96 l-55
-57 -44 39 c-52 46 -115 66 -204 66 -84 -1 -129 -17 -173 -62 -40 -39 -53 -81
-44 -145 10 -74 66 -113 260 -182 166 -59 235 -96 295 -160 65 -68 93 -143 93
-247 0 -42 -3 -95 -7 -116 -28 -156 -166 -290 -344 -334 -69 -17 -238 -17
-310 0 -87 21 -190 74 -248 126 l-53 48 92 93 93 93 57 -54 c69 -63 130 -87
227 -87 138 1 234 80 234 192 0 107 -73 165 -307 240 -160 52 -262 127 -312
229 -25 51 -28 66 -28 166 0 103 2 114 32 178 66 140 184 215 393 251 47 8
201 -4 258 -20z m3334 -473 c67 -23 163 -84 173 -108 4 -12 -17 -40 -74 -97
l-80 -79 -37 33 c-49 43 -93 60 -151 60 -97 -1 -179 -52 -229 -142 -26 -48
-29 -62 -29 -143 0 -75 4 -98 23 -135 45 -85 118 -139 209 -155 56 -9 143 17
187 55 l34 30 77 -85 77 -84 -29 -25 c-72 -63 -204 -106 -323 -106 -248 0
-453 175 -491 420 -50 327 190 600 516 586 56 -3 112 -12 147 -25z m-1510
-314 c3 -312 3 -313 28 -362 34 -64 77 -90 150 -89 61 1 102 18 142 61 58 61
61 81 66 406 l4 297 114 0 114 0 0 -480 0 -480 -110 0 -110 0 -1 78 c0 76 0
77 -17 52 -36 -52 -76 -92 -120 -117 -37 -22 -61 -28 -132 -31 -152 -7 -253
40 -312 144 -50 90 -58 155 -58 512 l0 322 119 0 120 0 3 -313z m-294 -1100
l2 -277 -25 0 c-20 0 -25 5 -25 25 l0 24 -36 -24 c-137 -93 -308 32 -265 193
15 56 53 97 106 117 57 22 124 13 165 -21 l30 -26 0 129 c0 72 3 133 7 137 4
4 14 5 23 4 13 -3 15 -40 18 -281z m1137 193 c0 -18 -6 -26 -23 -28 -13 -2
-25 3 -28 12 -10 26 4 48 28 44 17 -2 23 -10 23 -28z m-225 -80 l0 -50 50 0
c43 0 50 -3 50 -20 0 -17 -7 -20 -50 -20 l-50 0 0 -115 c0 -101 2 -117 20
-135 14 -14 27 -18 50 -14 25 6 30 3 30 -14 0 -42 -106 -37 -129 7 -6 11 -11
76 -11 145 l0 126 -35 0 c-28 0 -35 4 -35 20 0 16 7 20 35 20 l35 0 0 50 c0
43 3 50 20 50 17 0 20 -7 20 -50z m-2089 -63 c115 -61 121 -241 9 -310 -53
-33 -134 -30 -188 6 l-42 27 0 -110 c0 -103 -1 -110 -20 -110 -19 0 -20 7 -20
255 0 248 1 255 20 255 15 0 20 -7 20 -26 l0 -25 29 20 c66 47 126 53 192 18z
m354 3 c0 -8 -16 -19 -39 -25 -21 -6 -49 -24 -62 -39 -22 -25 -24 -35 -24
-147 l0 -119 -25 0 -25 0 0 170 c0 163 1 170 20 170 15 0 20 -7 20 -27 0 -24
1 -25 18 -10 47 43 117 59 117 27z m282 5 c75 -31 106 -81 106 -167 0 -142
-147 -223 -270 -147 -46 28 -73 85 -73 151 0 71 31 124 89 155 51 27 97 29
148 8z m1263 -7 c24 -13 46 -29 48 -35 6 -19 -28 -28 -51 -13 -91 57 -197 -2
-197 -110 0 -102 118 -168 194 -109 25 20 29 20 43 6 22 -21 6 -41 -52 -63
-79 -30 -168 4 -206 79 -17 31 -20 54 -17 102 5 74 33 119 92 146 54 25 93 24
146 -3z m757 7 c50 -21 72 -42 94 -90 60 -131 -45 -272 -187 -250 -83 12 -144
88 -144 178 0 124 124 209 237 162z m427 0 c54 -26 60 -46 64 -197 4 -135 3
-138 -17 -138 -20 0 -21 5 -21 98 -1 165 -19 207 -91 206 -32 -1 -48 -9 -73
-33 -31 -31 -31 -32 -34 -151 -4 -119 -4 -120 -28 -120 l-24 0 0 170 0 170 25
0 c20 0 25 -5 25 -27 l0 -27 28 26 c44 41 91 49 146 23z m331 1 c44 -19 63
-51 36 -65 -14 -8 -23 -6 -36 9 -27 30 -99 28 -120 -4 -28 -42 -7 -60 94 -86
59 -15 91 -49 91 -95 0 -100 -155 -140 -231 -59 -24 25 -24 26 -4 40 12 9 21
11 23 4 6 -18 59 -40 95 -40 38 0 62 16 71 46 10 32 -14 50 -94 74 -99 29
-127 82 -79 144 37 46 92 58 154 32z m-2095 -122 c0 -69 4 -134 10 -144 11
-21 63 -41 88 -34 77 25 92 57 92 198 l0 106 25 0 25 0 0 -170 c0 -163 -1
-170 -20 -170 -15 0 -20 7 -20 25 0 27 -14 34 -23 12 -10 -26 -76 -49 -122
-43 -82 13 -104 63 -105 239 l0 107 25 0 25 0 0 -126z m990 -44 c0 -163 -1
-170 -20 -170 -19 0 -20 7 -20 170 0 163 1 170 20 170 19 0 20 -7 20 -170z"/>
<path d="M2840 2587 c-97 -34 -109 -196 -18 -243 75 -39 164 -6 194 72 16 43
16 47 -2 92 -29 70 -103 104 -174 79z"/>
<path d="M1765 2588 c-112 -39 -126 -191 -23 -244 40 -21 102 -20 134 1 93 61
80 197 -23 241 -37 16 -47 16 -88 2z"/>
<path d="M2404 2581 c-53 -24 -78 -75 -71 -140 10 -94 110 -141 199 -95 75 39
78 179 5 227 -40 26 -88 29 -133 8z"/>
<path d="M4446 2590 c-98 -30 -125 -167 -45 -234 34 -29 105 -35 148 -13 57
28 83 137 47 192 -32 48 -95 71 -150 55z"/>
</g>
</svg>
